<svg xmlns="http://www.w3.org/2000/svg" xmlns:xlink="http://www.w3.org/1999/xlink" width="48" height="48" viewBox="0 0 48 48">
    <defs>
        <rect id="a" width="11" height="10.286" y="5.714" rx="1"/>
    </defs>
    <g fill="none" fill-rule="evenodd">
        <path fill="#6CDDE1" d="M34.957 20.543v12.972a1 1 0 0 1-1 1H16.56a1 1 0 0 1-1-1V20.543h-2.45a1 1 0 0 1-.574-1.819l12.148-8.526a1 1 0 0 1 1.149 0l12.147 8.526a1 1 0 0 1-.574 1.819h-2.45z"/>
        <path stroke="#2E2E2E" d="M32.368 28.121l-6.837-13.263-2.703-1.784a.5.5 0 0 0-.55 0L9.32 21.624a.5.5 0 0 0 .275.917h3.141v13.472a.5.5 0 0 0 .5.5h18.631a.5.5 0 0 0 .5-.5V28.12z"/>
        <path stroke="#2E2E2E" d="M15.5 30.5h2V26a.5.5 0 0 0-.5-.5h-1a.5.5 0 0 0-.5.5v4.5zM19.5 30.5h2V26a.5.5 0 0 0-.5-.5h-1a.5.5 0 0 0-.5.5v4.5zM23.5 30.5h2V26a.5.5 0 0 0-.5-.5h-1a.5.5 0 0 0-.5.5v4.5z"/>
        <g transform="translate(28 9)">
            <use fill="#FFF" xlink:href="#a"/>
            <rect width="10" height="9.286" x=".5" y="6.214" stroke="#2E2E2E" rx="1"/>
            <path stroke="#2E2E2E" d="M2.2 6.286V3.31A3.311 3.311 0 0 1 5.511 0a3.406 3.406 0 0 1 3.405 3.31L9 6.286"/>
            <ellipse cx="5.5" cy="10.286" stroke="#2E2E2E" rx="1.1" ry="1.143"/>
            <path stroke="#2E2E2E" stroke-linecap="round" d="M5.5 11.429v1.807"/>
        </g>
        <path stroke="#2E2E2E" stroke-linecap="round" d="M15 22h4.5M21.44 22h1.12"/>
    </g>
</svg>
