<svg xmlns="http://www.w3.org/2000/svg" width="48" height="48" viewBox="0 0 48 48">
    <g fill="none" fill-rule="evenodd">
        <path fill="#6CDDE1" d="M16 12h18v25H16z"/>
        <g stroke="#2E2E2E">
            <path stroke-linecap="round" d="M33.77 15.294a3.103 3.103 0 0 0-2.438-3.024M36.885 15.294c0-3.03-2.187-5.552-5.077-6.09M40 15.294c0-4.517-3.241-8.282-7.537-9.12"/>
            <g transform="translate(13 14.262)">
                <rect width="17.692" height="24.817" x=".5" y=".5" rx="1"/>
                <rect width="11.462" height="2.098" x="3.615" y="4.631" rx="1"/>
                <ellipse cx="5.192" cy="11.36" rx="1.038" ry="1.033"/>
                <ellipse cx="5.192" cy="15.49" rx="1.038" ry="1.033"/>
                <ellipse cx="9.346" cy="11.36" rx="1.038" ry="1.033"/>
                <ellipse cx="9.346" cy="15.49" rx="1.038" ry="1.033"/>
                <ellipse cx="13.5" cy="11.36" rx="1.038" ry="1.033"/>
                <ellipse cx="13.5" cy="15.49" rx="1.038" ry="1.033"/>
                <ellipse cx="5.192" cy="19.621" rx="1.038" ry="1.033"/>
                <ellipse cx="9.346" cy="19.621" rx="1.038" ry="1.033"/>
                <ellipse cx="13.5" cy="19.621" rx="1.038" ry="1.033"/>
            </g>
        </g>
    </g>
</svg>
