<svg xmlns="http://www.w3.org/2000/svg" width="48" height="48" viewBox="0 0 48 48">
    <g fill="none" fill-rule="evenodd">
        <path fill="#6CDDE1" d="M16.534 19.985c.804-.854 1.987-1.405 3.325-1.405 1.345 0 2.534.559 3.34 1.42a4.555 4.555 0 0 1 3.34-1.42c1.336 0 2.518.55 3.324 1.405.804-.854 1.986-1.405 3.324-1.405 1.323 0 2.497.542 3.303 1.38a4.565 4.565 0 0 1 3.302-1.38c.071 0 .138.217.208.22-.587-6-6.618-10.8-13.5-10.8S13.943 12.61 13 18.598c.072-.003.138-.018.21-.018 1.336 0 2.519.55 3.324 1.405z"/>
        <path fill="#6CDDE1" d="M35.656 22.744V36a1 1 0 0 1-1 1H15.344a1 1 0 0 1-1-1V22.744H11.54a1 1 0 0 1-.546-1.838l13.46-8.772a1 1 0 0 1 1.092 0l13.46 8.772a1 1 0 0 1-.547 1.838h-2.803z"/>
        <path stroke="#2E2E2E" d="M29.208 21.568L15.912 21.5l-6.054 3.39A.699.699 0 0 0 10.2 26.2h2.098v11.6a.7.7 0 0 0 .701.7h19a.7.7 0 0 0 .7-.7V26.2H34.8a.698.698 0 0 0 .343-1.309l-5.934-3.323z"/>
        <path stroke="#2E2E2E" d="M16.5 33.5h3V29a.5.5 0 0 0-.5-.5h-2a.5.5 0 0 0-.5.5v4.5zM21.5 33.5h3V29a.5.5 0 0 0-.5-.5h-2a.5.5 0 0 0-.5.5v4.5zM26.5 33.5h3V29a.5.5 0 0 0-.5-.5h-2a.5.5 0 0 0-.5.5v4.5z"/>
        <path stroke="#2E2E2E" stroke-linejoin="round" d="M9.21 18.58c1.336 0 2.519.55 3.324 1.405.804-.854 1.987-1.405 3.325-1.405 1.345 0 2.534.559 3.34 1.42a4.555 4.555 0 0 1 3.34-1.42c1.336 0 2.518.55 3.324 1.405.804-.854 1.986-1.405 3.324-1.405 1.323 0 2.497.542 3.303 1.38a4.565 4.565 0 0 1 3.302-1.38c.071 0 .138.015.208.018C35.058 12.61 29.382 8 22.5 8S9.943 12.61 9 18.598c.072-.003.138-.018.21-.018"/>
        <path stroke="#2E2E2E" d="M23 19v6a1 1 0 0 0 2 0v-.93"/>
        <path stroke="#2E2E2E" stroke-linecap="round" d="M15.788 12A9.286 9.286 0 0 0 13 16.878M32 17a9.266 9.266 0 0 0-2.642-4.837M20.174 12c-.586 1.291-1.005 2.98-1.174 4.878M27 17c-.155-1.869-.552-3.54-1.112-4.837"/>
        <path fill="#6CDDE1" d="M39 18c.444 0 .778.167 1 .5V21a2 2 0 0 1-2 2h-2.5c.333-.667.5-1.222.5-1.667 0-.444.444-1.555 1.333-3.333H39z"/>
    </g>
</svg>
