<svg xmlns="http://www.w3.org/2000/svg" width="48" height="48" viewBox="0 0 48 48">
    <g fill="none" fill-rule="evenodd">
        <path fill="#C388F3" d="M16 13h17v21H16z"/>
        <g stroke="#2E2E2E">
            <path stroke-linecap="round" d="M30 31.705v3.34c0 .528-.448.955-1 .955H15c-.552 0-1-.427-1-.955v-19.09c0-.528.448-.955 1-.955h14c.552 0 1 .427 1 .955v1.431M17 19h6.5M17 22h4.528M17 25h2.55"/>
            <path d="M25.306 29.153c1.355 1.355 4.661.247 7.384-2.476 1.57-1.57 2.854-4.077 3.854-7.523a1 1 0 0 0-1.24-1.24c-3.445 1-5.953 2.285-7.522 3.854-2.723 2.723-3.832 6.03-2.476 7.385z"/>
            <path stroke-linecap="round" stroke-linejoin="round" d="M31.514 22.944l-8.584 8.584"/>
        </g>
    </g>
</svg>
