<svg xmlns="http://www.w3.org/2000/svg" width="48" height="48" viewBox="0 0 48 48">
    <g fill="none" fill-rule="evenodd">
        <path fill="#FF5A5A" d="M16.34 34l-.971-13.727h-1.755c-.34 0-.614-.25-.614-.558 0-.184.099-.355.265-.46L24.65 12.1a.665.665 0 0 1 .698 0l11.386 7.156c.279.176.349.523.156.777a.634.634 0 0 1-.505.241h-1.769L33.823 34"/>
        <path stroke="#2E2E2E" d="M14.806 34.5H31.35l.794-13.727h2.24c.05 0 .09-.02.108-.043.012-.017.01-.03-.024-.051l-11.386-7.157a.165.165 0 0 0-.166 0L11.531 20.68c-.023.014-.031.028-.031.036 0 .02.041.058.114.058h2.22l.972 13.727z"/>
        <path stroke="#2E2E2E" stroke-linecap="round" d="M17 21h6"/>
        <path fill="#FFF" stroke="#2E2E2E" stroke-linecap="round" d="M20 28a3 3 0 1 0 2.09-2.86m-.982.532a3.01 3.01 0 0 0-.847 1.101"/>
        <path stroke="#2E2E2E" stroke-linecap="round" d="M12.13 35.333h21.831"/>
    </g>
</svg>
