<svg xmlns="http://www.w3.org/2000/svg" width="48" height="48" viewBox="0 0 48 48">
    <g fill="none" fill-rule="evenodd" transform="translate(6 10)">
        <path fill="#6CDDE1" d="M3 0h32v26H3z"/>
        <rect width="29" height="23" x=".5" y="5.5" stroke="#2E2E2E" rx="1"/>
        <path stroke="#2E2E2E" stroke-linecap="round" stroke-linejoin="round" d="M32 20V3.905c0-.5-.385-.905-.859-.905H10.862M8.641 3H6"/>
        <g fill="#2E2E2E">
            <g transform="translate(4 11)">
                <rect width="1.692" height="1" x="9.308" rx=".5"/>
                <rect width="7.615" height="1" rx=".5"/>
            </g>
            <g transform="translate(4 13.538)">
                <rect width="1.692" height="1" x="9.308" rx=".5"/>
                <rect width="7.615" height="1" rx=".5"/>
            </g>
            <g transform="translate(4 16.077)">
                <rect width="1.692" height="1" x="9.308" rx=".5"/>
                <rect width="6.769" height="1" rx=".5"/>
            </g>
            <g transform="translate(4 18.615)">
                <rect width="1.692" height="1" x="9.308" rx=".5"/>
                <rect width="5.077" height="1" rx=".5"/>
            </g>
            <g transform="translate(4 21.154)">
                <rect width="1.692" height="1" x="9.308" rx=".5"/>
                <rect width="6.769" height="1" rx=".5"/>
            </g>
        </g>
        <g stroke="#2E2E2E" stroke-linecap="round" stroke-linejoin="round">
            <path d="M22.083 12.438v6.124M21.667 12h1.666c.92 0 1.667.784 1.667 1.75s-.746 1.75-1.667 1.75l-3.192.037M20.417 17.688h2.5"/>
        </g>
    </g>
</svg>
