<svg xmlns="http://www.w3.org/2000/svg" xmlns:xlink="http://www.w3.org/1999/xlink" width="48" height="48" viewBox="0 0 48 48">
    <defs>
        <rect id="a" width="16.527" height="13.059" x="8.236" y="9.991" rx="3"/>
    </defs>
    <g fill="none" fill-rule="evenodd">
        <path fill="#6CDDE1" d="M35.884 28.27l-2.583 7.964A4 4 0 0 1 29.496 39h-9.348a4 4 0 0 1-3.814-2.796l-2.697-8.544A13.395 13.395 0 0 1 11 19.67C11 12.121 17.268 6 25 6s14 6.12 14 13.671c0 3.259-1.167 6.251-3.116 8.6z"/>
        <g transform="translate(6 6)">
            <path stroke="#2E2E2E" d="M26.726 25.036l.088-.164a13.226 13.226 0 0 0 2.953-8.352c0-7.333-5.94-13.278-13.267-13.278-7.327 0-13.267 5.945-13.267 13.278 0 2.826.883 5.516 2.5 7.759l.071.145 2.65 8.606A3.5 3.5 0 0 0 11.8 35.5h9.052a3.5 3.5 0 0 0 3.337-2.444l2.538-8.02z"/>
            <path stroke="#2E2E2E" stroke-linecap="round" d="M16.882 5.288a11.19 11.19 0 0 0-7.758 2.747c-3.642 3.166-4.75 8.163-3.146 12.432m2.044 3.423c.438.505.912.961 1.414 1.369m3.239 1.829a11.23 11.23 0 0 0 11.201-2.082M24.978 9.15a11.274 11.274 0 0 0-2.09-1.875"/>
            <use fill="#FFF" xlink:href="#a"/>
            <rect width="15.527" height="12.059" x="8.736" y="10.491" stroke="#2E2E2E" rx="3"/>
            <g stroke="#2E2E2E" transform="translate(11.278 13.195)">
                <rect width="1" height="1.851" x="3.348" y=".5" rx=".5"/>
                <rect width="1" height="1.851" x="9.045" y=".5" rx=".5"/>
                <rect width="1" height="1.851" x=".5" y=".5" rx=".5"/>
                <rect width="1" height="1.851" x="6.197" y=".5" rx=".5"/>
            </g>
            <rect width="10.444" height="1" x="11.278" y="18.896" fill="#2E2E2E" rx=".5"/>
            <ellipse cx="16.5" cy="31.724" fill="#2E2E2E" rx="1.424" ry="1.425"/>
        </g>
    </g>
</svg>
