<svg xmlns="http://www.w3.org/2000/svg" width="23" height="17" viewBox="0 0 23 17">
    <g fill="none" fill-rule="evenodd">
        <g fill="#2A2A2A">
            <path d="M9.628.718l8.025 6.474a.5.5 0 0 1-.314.889H.661a.5.5 0 0 1-.314-.89L8.372.719a1 1 0 0 1 1.256 0z"/>
            <path d="M16 11.5h-4.439l2.146-2.146L13 8.646l-3.354 3.355L13 15.354l.707-.708L11.56 12.5H16V16a1 1 0 0 1-1 1H3a1 1 0 0 1-1-1V8h14v3.5z"/>
        </g>
        <path fill="#2A2A2A" fill-rule="nonzero" d="M20.439 11.5H16v1h4.44l-2.147 2.146.707.708L22.354 12 19 8.646l-.707.708 2.146 2.146z"/>
    </g>
</svg>
