<svg xmlns="http://www.w3.org/2000/svg" width="48" height="48" viewBox="0 0 48 48">
    <g fill="none" fill-rule="evenodd">
        <path fill="#C388F3" d="M17 11h18v22H17z"/>
        <g stroke="#2E2E2E">
            <g transform="translate(14 13)">
                <path d="M4.882 10.443C4.243 9.285 4 8.35 4 7.72c0-.63.155-.812.312-.958.157-.146.866-.583.987-.664.12-.082.582-.24.87.176.29.415.834 1.25 1.21 1.805.588.786.12 1.13-.032 1.337-.28.38-.44.474-.44.941 0 .467 1.305 1.794 1.618 2.121.31.325 1.61 1.465 2.013 1.526.406.061.95-.368 1.065-.477.587-.452.919-.11 1.19.04.27.148 1.493.91 1.872 1.167.357.257.335.654.335.654l-.825 1.307c-.112.164-.38.304-.981.304-.602 0-1.245-.11-2.774-.95-1.25-.688-2.442-1.765-3.067-2.396-.646-.63-1.741-1.889-2.47-3.211z"/>
                <rect width="18" height="22" x=".5" y=".5" rx="2"/>
            </g>
            <path stroke-linecap="round" stroke-linejoin="round" d="M14.5 16H12M14.5 30H12M14.5 18H12M14.5 32H12"/>
        </g>
    </g>
</svg>
